<svg width="848" height="811" viewBox="0 0 848 811" fill="none" xmlns="http://www.w3.org/2000/svg">
<rect x="251.153" y="481.519" width="50.1892" height="52.8186" transform="rotate(-9.59604 251.153 481.519)" stroke="#585858" stroke-opacity="0.2" stroke-width="2"/>
<rect x="686" y="432.059" width="49.0591" height="62.2901" transform="rotate(-90 686 432.059)" stroke="#585858" stroke-opacity="0.2" stroke-width="2"/>
<rect x="362.153" y="385.875" width="34.3243" height="36.1543" transform="rotate(-9.59604 362.153 385.875)" stroke="#585858" stroke-opacity="0.2" stroke-width="2"/>
<rect x="251.411" y="394.808" width="17.3051" height="26.2664" transform="rotate(-41.1925 251.411 394.808)" stroke="#585858" stroke-opacity="0.2" stroke-width="2"/>
<rect x="583.717" y="698.397" width="34.3243" height="36.1543" transform="rotate(36.1346 583.717 698.397)" stroke="#585858" stroke-opacity="0.2" stroke-width="2"/>
<rect x="1.25217" y="675.977" width="162.058" height="170.323" transform="rotate(-72.6974 1.25217 675.977)" stroke="#585858" stroke-opacity="0.2" stroke-width="2"/>
<rect x="106.364" y="168.123" width="55.9194" height="115.002" transform="rotate(-29.7628 106.364 168.123)" stroke="#585858" stroke-opacity="0.2" stroke-width="2"/>
<rect x="442.961" y="459.081" width="139.571" height="139.571" transform="rotate(4.88246 442.961 459.081)" stroke="#585858" stroke-opacity="0.2" stroke-width="2"/>
<rect x="536.751" y="240.081" width="40.3137" height="54.865" transform="rotate(4.88246 536.751 240.081)" stroke="#585858" stroke-opacity="0.2" stroke-width="2"/>
<rect x="662.153" y="595.575" width="158.5" height="166.587" transform="rotate(-9.59604 662.153 595.575)" stroke="#585858" stroke-opacity="0.2" stroke-width="2"/>
<mask id="path-11-inside-1_0_1" fill="white">
<path fill-rule="evenodd" clip-rule="evenodd" d="M192 810.542L419.992 648L536.199 811H192.327L192.327 811L192 810.542Z"/>
</mask>
<path d="M419.992 648L421.62 646.839L420.459 645.21L418.831 646.371L419.992 648ZM192 810.542L190.839 808.913L189.21 810.074L190.371 811.703L192 810.542ZM536.199 811V813H540.081L537.828 809.839L536.199 811ZM192.327 811L190.698 812.161L191.296 813H192.327V811ZM192.327 811L193.955 809.839L193.955 809.839L192.327 811ZM418.831 646.371L190.839 808.913L193.161 812.17L421.153 649.629L418.831 646.371ZM537.828 809.839L421.62 646.839L418.363 649.161L534.571 812.161L537.828 809.839ZM192.327 813H536.199V809H192.327V813ZM190.698 812.161L190.698 812.161L193.955 809.839L193.955 809.839L190.698 812.161ZM190.371 811.703L190.698 812.161L193.955 809.839L193.629 809.381L190.371 811.703Z" fill="#585858" fill-opacity="0.2" mask="url(#path-11-inside-1_0_1)"/>
<mask id="path-13-inside-2_0_1" fill="white">
<path fill-rule="evenodd" clip-rule="evenodd" d="M97.5378 811L43.6426 797L40.0059 811H97.5378Z"/>
</mask>
<path d="M43.6426 797L44.1454 795.064L42.2097 794.561L41.7068 796.497L43.6426 797ZM97.5378 811V813L98.0406 809.064L97.5378 811ZM40.0059 811L38.0701 810.497L37.42 813H40.0059V811ZM43.1397 798.936L97.0349 812.936L98.0406 809.064L44.1454 795.064L43.1397 798.936ZM41.9416 811.503L45.5783 797.503L41.7068 796.497L38.0701 810.497L41.9416 811.503ZM40.0059 813H97.5378V809H40.0059V813Z" fill="#585858" fill-opacity="0.2" mask="url(#path-13-inside-2_0_1)"/>
<mask id="path-15-inside-3_0_1" fill="white">
<path fill-rule="evenodd" clip-rule="evenodd" d="M595.485 811H684.527L669.892 778L595.485 811Z"/>
</mask>
<path d="M595.485 811L594.674 809.172L595.485 813V811ZM684.527 811V813H687.602L686.356 810.189L684.527 811ZM669.892 778L671.72 777.189L670.909 775.361L669.081 776.172L669.892 778ZM595.485 813H684.527V809H595.485V813ZM668.063 778.811L682.699 811.811L686.356 810.189L671.72 777.189L668.063 778.811ZM596.296 812.828L670.702 779.828L669.081 776.172L594.674 809.172L596.296 812.828Z" fill="#585858" fill-opacity="0.2" mask="url(#path-15-inside-3_0_1)"/>
<mask id="path-17-inside-4_0_1" fill="white">
<path fill-rule="evenodd" clip-rule="evenodd" d="M847 157L847 -1.74881e-05L796 25.8059L847 157Z"/>
</mask>
<path d="M847 157L845.136 157.725L849 157L847 157ZM847 -9.46762e-06L849 -9.55504e-06L849 -3.25346L846.097 -1.78456L847 -9.46762e-06ZM796 25.8059L795.097 24.0214L793.479 24.8402L794.136 26.5306L796 25.8059ZM849 157L849 -9.55504e-06L845 -9.38019e-06L845 157L849 157ZM796.903 27.5905L847.903 1.78454L846.097 -1.78456L795.097 24.0214L796.903 27.5905ZM848.864 156.276L797.864 25.0813L794.136 26.5306L845.136 157.725L848.864 156.276Z" fill="#585858" fill-opacity="0.2" mask="url(#path-17-inside-4_0_1)"/>
</svg>
